?<?xml version="1.0" standalone="no"?><!-- Generator: Gravit.io --><svg xmlns="http://www.w3.org/2000/svg" xmlns:xlink="http://www.w3.org/1999/xlink" style="isolation:isolate" viewBox="0 0 430 80" width="430" height="80"><defs><clipPath id="_clipPath_G8L2Pj3bHxkYkdTZ8iKExntdHCdX3TH0"><rect width="430" height="80"/></clipPath></defs><g clip-path="url(#_clipPath_G8L2Pj3bHxkYkdTZ8iKExntdHCdX3TH0)"><g><path d=" M 16.822 15.418 L 16.822 28.919 L 20.24 28.919 L 20.24 28.919 Q 25.265 28.919 27.657 27.244 L 27.657 27.244 L 27.657 27.244 Q 30.05 25.569 30.05 21.98 L 30.05 21.98 L 30.05 21.98 Q 30.05 18.426 27.606 16.922 L 27.606 16.922 L 27.606 16.922 Q 25.162 15.418 20.035 15.418 L 20.035 15.418 L 16.822 15.418 Z  M 22.462 37.532 L 16.822 37.532 L 16.822 56.707 L 6.227 56.707 L 6.227 6.736 L 20.787 6.736 L 20.787 6.736 Q 30.973 6.736 35.86 10.445 L 35.86 10.445 L 35.86 10.445 Q 40.748 14.153 40.748 21.707 L 40.748 21.707 L 40.748 21.707 Q 40.748 26.116 38.321 29.551 L 38.321 29.551 L 38.321 29.551 Q 35.895 32.986 31.451 34.935 L 31.451 34.935 L 31.451 34.935 Q 42.73 51.785 46.148 56.707 L 46.148 56.707 L 34.391 56.707 L 22.462 37.532 Z  M 67.442 25.193 L 67.442 25.193 L 67.442 25.193 Q 64.127 25.193 62.247 27.295 L 62.247 27.295 L 62.247 27.295 Q 60.367 29.397 60.094 33.26 L 60.094 33.26 L 74.723 33.26 L 74.723 33.26 Q 74.654 29.397 72.706 27.295 L 72.706 27.295 L 72.706 27.295 Q 70.758 25.193 67.442 25.193 Z  M 68.912 57.391 L 68.912 57.391 L 68.912 57.391 Q 59.684 57.391 54.488 52.298 L 54.488 52.298 L 54.488 52.298 Q 49.293 47.205 49.293 37.874 L 49.293 37.874 L 49.293 37.874 Q 49.293 28.27 54.095 23.023 L 54.095 23.023 L 54.095 23.023 Q 58.897 17.776 67.374 17.776 L 67.374 17.776 L 67.374 17.776 Q 75.475 17.776 79.986 22.391 L 79.986 22.391 L 79.986 22.391 Q 84.498 27.005 84.498 35.14 L 84.498 35.14 L 84.498 40.198 L 59.854 40.198 L 59.854 40.198 Q 60.025 44.642 62.486 47.137 L 62.486 47.137 L 62.486 47.137 Q 64.947 49.632 69.391 49.632 L 69.391 49.632 L 69.391 49.632 Q 72.843 49.632 75.919 48.914 L 75.919 48.914 L 75.919 48.914 Q 78.995 48.196 82.345 46.624 L 82.345 46.624 L 82.345 54.69 L 82.345 54.69 Q 79.61 56.058 76.5 56.724 L 76.5 56.724 L 76.5 56.724 Q 73.39 57.391 68.912 57.391 Z  M 124.522 56.707 L 117.242 56.707 L 115.226 51.512 L 114.952 51.512 L 114.952 51.512 Q 112.32 54.827 109.535 56.109 L 109.535 56.109 L 109.535 56.109 Q 106.749 57.391 102.271 57.391 L 102.271 57.391 L 102.271 57.391 Q 96.769 57.391 93.607 54.246 L 93.607 54.246 L 93.607 54.246 Q 90.445 51.102 90.445 45.291 L 90.445 45.291 L 90.445 45.291 Q 90.445 39.207 94.701 36.319 L 94.701 36.319 L 94.701 36.319 Q 98.956 33.431 107.535 33.123 L 107.535 33.123 L 114.166 32.918 L 114.166 31.243 L 114.166 31.243 Q 114.166 25.433 108.219 25.433 L 108.219 25.433 L 108.219 25.433 Q 103.639 25.433 97.452 28.201 L 97.452 28.201 L 94 21.16 L 94 21.16 Q 100.597 17.708 108.629 17.708 L 108.629 17.708 L 108.629 17.708 Q 116.319 17.708 120.421 21.058 L 120.421 21.058 L 120.421 21.058 Q 124.522 24.407 124.522 31.243 L 124.522 31.243 L 124.522 56.707 Z  M 114.166 42.146 L 114.166 39.002 L 110.133 39.139 L 110.133 39.139 Q 105.587 39.275 103.365 40.779 L 103.365 40.779 L 103.365 40.779 Q 101.144 42.283 101.144 45.359 L 101.144 45.359 L 101.144 45.359 Q 101.144 49.769 106.202 49.769 L 106.202 49.769 L 106.202 49.769 Q 109.825 49.769 111.996 47.684 L 111.996 47.684 L 111.996 47.684 Q 114.166 45.599 114.166 42.146 L 114.166 42.146 Z  M 150.772 57.391 L 150.772 57.391 L 150.772 57.391 Q 132.931 57.391 132.931 37.806 L 132.931 37.806 L 132.931 37.806 Q 132.931 28.064 137.784 22.92 L 137.784 22.92 L 137.784 22.92 Q 142.638 17.776 151.695 17.776 L 151.695 17.776 L 151.695 17.776 Q 158.326 17.776 163.59 20.374 L 163.59 20.374 L 160.514 28.44 L 160.514 28.44 Q 158.053 27.449 155.934 26.817 L 155.934 26.817 L 155.934 26.817 Q 153.814 26.185 151.695 26.185 L 151.695 26.185 L 151.695 26.185 Q 143.561 26.185 143.561 37.737 L 143.561 37.737 L 143.561 37.737 Q 143.561 48.948 151.695 48.948 L 151.695 48.948 L 151.695 48.948 Q 154.703 48.948 157.267 48.145 L 157.267 48.145 L 157.267 48.145 Q 159.83 47.342 162.394 45.633 L 162.394 45.633 L 162.394 54.554 L 162.394 54.554 Q 159.864 56.16 157.284 56.775 L 157.284 56.775 L 157.284 56.775 Q 154.703 57.391 150.772 57.391 Z  M 187.345 49.085 L 187.345 49.085 L 187.345 49.085 Q 190.079 49.085 193.907 47.889 L 193.907 47.889 L 193.907 55.647 L 193.907 55.647 Q 190.011 57.391 184.337 57.391 L 184.337 57.391 L 184.337 57.391 Q 178.082 57.391 175.228 54.229 L 175.228 54.229 L 175.228 54.229 Q 172.374 51.067 172.374 44.744 L 172.374 44.744 L 172.374 26.321 L 167.384 26.321 L 167.384 21.912 L 173.126 18.426 L 176.134 10.359 L 182.799 10.359 L 182.799 18.494 L 193.497 18.494 L 193.497 26.321 L 182.799 26.321 L 182.799 44.744 L 182.799 44.744 Q 182.799 46.966 184.046 48.025 L 184.046 48.025 L 184.046 48.025 Q 185.294 49.085 187.345 49.085 Z  M 216.603 42.215 L 198.248 42.215 L 198.248 33.67 L 216.603 33.67 L 216.603 42.215 Z  M 250.748 48.743 L 250.748 56.707 L 220.567 56.707 L 220.567 50.555 L 238.272 26.458 L 221.627 26.458 L 221.627 18.494 L 250.133 18.494 L 250.133 25.262 L 232.906 48.743 L 250.748 48.743 Z  M 284.894 48.743 L 284.894 56.707 L 254.713 56.707 L 254.713 50.555 L 272.418 26.458 L 255.772 26.458 L 255.772 18.494 L 284.278 18.494 L 284.278 25.262 L 267.052 48.743 L 284.894 48.743 Z  M 323.995 56.707 L 316.715 56.707 L 314.698 51.512 L 314.425 51.512 L 314.425 51.512 Q 311.793 54.827 309.007 56.109 L 309.007 56.109 L 309.007 56.109 Q 306.222 57.391 301.744 57.391 L 301.744 57.391 L 301.744 57.391 Q 296.241 57.391 293.08 54.246 L 293.08 54.246 L 293.08 54.246 Q 289.918 51.102 289.918 45.291 L 289.918 45.291 L 289.918 45.291 Q 289.918 39.207 294.173 36.319 L 294.173 36.319 L 294.173 36.319 Q 298.429 33.431 307.008 33.123 L 307.008 33.123 L 313.639 32.918 L 313.639 31.243 L 313.639 31.243 Q 313.639 25.433 307.691 25.433 L 307.691 25.433 L 307.691 25.433 Q 303.111 25.433 296.925 28.201 L 296.925 28.201 L 293.473 21.16 L 293.473 21.16 Q 300.069 17.708 308.102 17.708 L 308.102 17.708 L 308.102 17.708 Q 315.792 17.708 319.894 21.058 L 319.894 21.058 L 319.894 21.058 Q 323.995 24.407 323.995 31.243 L 323.995 31.243 L 323.995 56.707 Z  M 313.639 42.146 L 313.639 39.002 L 309.605 39.139 L 309.605 39.139 Q 305.06 39.275 302.838 40.779 L 302.838 40.779 L 302.838 40.779 Q 300.616 42.283 300.616 45.359 L 300.616 45.359 L 300.616 45.359 Q 300.616 49.769 305.675 49.769 L 305.675 49.769 L 305.675 49.769 Q 309.298 49.769 311.468 47.684 L 311.468 47.684 L 311.468 47.684 Q 313.639 45.599 313.639 42.146 L 313.639 42.146 Z  M 356.056 17.776 L 356.056 17.776 L 356.056 17.776 Q 358.175 17.776 359.576 18.084 L 359.576 18.084 L 358.79 27.859 L 358.79 27.859 Q 357.525 27.518 355.714 27.518 L 355.714 27.518 L 355.714 27.518 Q 350.724 27.518 347.938 30.081 L 347.938 30.081 L 347.938 30.081 Q 345.152 32.645 345.152 37.259 L 345.152 37.259 L 345.152 56.707 L 334.728 56.707 L 334.728 18.494 L 342.623 18.494 L 344.161 24.92 L 344.674 24.92 L 344.674 24.92 Q 346.451 21.707 349.476 19.742 L 349.476 19.742 L 349.476 19.742 Q 352.501 17.776 356.056 17.776 Z  M 366.07 8.616 L 366.07 8.616 L 366.07 8.616 Q 366.07 3.523 371.744 3.523 L 371.744 3.523 L 371.744 3.523 Q 377.418 3.523 377.418 8.616 L 377.418 8.616 L 377.418 8.616 Q 377.418 11.043 376 12.393 L 376 12.393 L 376 12.393 Q 374.581 13.743 371.744 13.743 L 371.744 13.743 L 371.744 13.743 Q 366.07 13.743 366.07 8.616 Z  M 376.939 18.494 L 376.939 56.707 L 366.515 56.707 L 366.515 18.494 L 376.939 18.494 Z  M 419.425 56.707 L 412.145 56.707 L 410.128 51.512 L 409.854 51.512 L 409.854 51.512 Q 407.223 54.827 404.437 56.109 L 404.437 56.109 L 404.437 56.109 Q 401.651 57.391 397.174 57.391 L 397.174 57.391 L 397.174 57.391 Q 391.671 57.391 388.509 54.246 L 388.509 54.246 L 388.509 54.246 Q 385.348 51.102 385.348 45.291 L 385.348 45.291 L 385.348 45.291 Q 385.348 39.207 389.603 36.319 L 389.603 36.319 L 389.603 36.319 Q 393.858 33.431 402.438 33.123 L 402.438 33.123 L 409.068 32.918 L 409.068 31.243 L 409.068 31.243 Q 409.068 25.433 403.121 25.433 L 403.121 25.433 L 403.121 25.433 Q 398.541 25.433 392.354 28.201 L 392.354 28.201 L 388.902 21.16 L 388.902 21.16 Q 395.499 17.708 403.531 17.708 L 403.531 17.708 L 403.531 17.708 Q 411.222 17.708 415.323 21.058 L 415.323 21.058 L 415.323 21.058 Q 419.425 24.407 419.425 31.243 L 419.425 31.243 L 419.425 56.707 Z  M 409.068 42.146 L 409.068 39.002 L 405.035 39.139 L 405.035 39.139 Q 400.489 39.275 398.268 40.779 L 398.268 40.779 L 398.268 40.779 Q 396.046 42.283 396.046 45.359 L 396.046 45.359 L 396.046 45.359 Q 396.046 49.769 401.104 49.769 L 401.104 49.769 L 401.104 49.769 Q 404.728 49.769 406.898 47.684 L 406.898 47.684 L 406.898 47.684 Q 409.068 45.599 409.068 42.146 L 409.068 42.146 Z " fill="rgb(0,0,0)"/><line x1="9.437" y1="72.682" x2="170.437" y2="72.682" vector-effect="non-scaling-stroke" stroke-width="1" stroke="rgb(0,0,0)" stroke-linejoin="miter" stroke-linecap="square" stroke-miterlimit="3"/>fill="rgb(0,0,0)"/></g></g></svg>
